<svg xmlns="http://www.w3.org/2000/svg" xmlns:xlink="http://www.w3.org/1999/xlink" id="Capa_1" x="0px" y="0px" viewBox="0 0 851 335.4" style="enable-background:new 0 0 851 335.4;" xml:space="preserve"><style type="text/css">	.st0{fill:#BD1714;}</style><g>	<g>		<g>			<path class="st0" d="M361.9,244.1v-10.3h3.2V244c0,3.3,1.7,5.1,4.5,5.1c2.8,0,4.5-1.7,4.5-5v-10.3h3.2V244c0,5.4-3,8.1-7.7,8.1    C364.8,252,361.9,249.3,361.9,244.1z"></path>			<path class="st0" d="M388.7,233.8h2.9l9.6,12.4v-12.4h3.1v18h-2.6l-9.9-12.8v12.8h-3.1V233.8z"></path>			<path class="st0" d="M416.4,233.8h3.2v18h-3.2V233.8z"></path>			<path class="st0" d="M430,233.8h3.5l5.4,13.8l5.4-13.8h3.4l-7.4,18.1h-2.8L430,233.8z"></path>			<path class="st0" d="M457.9,233.8h13.3v2.8h-10.2v4.7h9v2.8h-9v4.8h10.3v2.8h-13.4V233.8z"></path>			<path class="st0" d="M482.3,233.8h8c2.3,0,4,0.7,5.2,1.8c0.9,1,1.5,2.3,1.5,3.9v0.1c0,2.9-1.8,4.7-4.3,5.4l4.8,6.8h-3.7l-4.4-6.3    h-3.9v6.3h-3.2V233.8z M490.1,242.7c2.3,0,3.7-1.2,3.7-3v-0.1c0-1.9-1.4-3-3.7-3h-4.6v6H490.1z"></path>			<path class="st0" d="M506.8,249.1l1.9-2.3c1.7,1.5,3.5,2.3,5.7,2.3c2,0,3.2-0.9,3.2-2.3v-0.1c0-1.3-0.7-2-4.1-2.7    c-3.8-0.9-6-2.1-6-5.4v-0.1c0-3.1,2.6-5.2,6.1-5.2c2.6,0,4.7,0.8,6.5,2.3l-1.7,2.4c-1.6-1.2-3.2-1.8-4.9-1.8    c-1.8,0-2.9,0.9-2.9,2.1v0.1c0,1.4,0.8,2,4.3,2.8c3.8,0.9,5.7,2.3,5.7,5.3v0.1c0,3.4-2.6,5.4-6.4,5.4    C511.6,252,509,251,506.8,249.1z"></path>			<path class="st0" d="M531.8,233.8h3.2v18h-3.2V233.8z"></path>			<path class="st0" d="M546.9,233.8h6.7c5.6,0,9.5,3.9,9.5,8.9v0.1c0,5.1-3.9,9-9.5,9h-6.7V233.8z M550.1,236.7v12.2h3.5    c3.8,0,6.2-2.5,6.2-6.1v-0.1c0-3.5-2.5-6.1-6.2-6.1H550.1z"></path>			<path class="st0" d="M579.3,233.7h2.9l7.9,18.1h-3.3l-1.8-4.3h-8.5l-1.8,4.3h-3.2L579.3,233.7z M583.8,244.6l-3.1-7.2l-3.1,7.2    H583.8z"></path>			<path class="st0" d="M600.4,233.8h6.7c5.6,0,9.5,3.9,9.5,8.9v0.1c0,5.1-3.9,9-9.5,9h-6.7V233.8z M603.5,236.7v12.2h3.5    c3.8,0,6.2-2.5,6.2-6.1v-0.1c0-3.5-2.5-6.1-6.2-6.1H603.5z"></path>			<path class="st0" d="M642.5,233.8h6.7c5.6,0,9.5,3.9,9.5,8.9v0.1c0,5.1-3.9,9-9.5,9h-6.7V233.8z M645.7,236.7v12.2h3.5    c3.8,0,6.2-2.5,6.2-6.1v-0.1c0-3.5-2.5-6.1-6.2-6.1H645.7z"></path>			<path class="st0" d="M669.7,233.8h13.3v2.8h-10.2v4.7h9v2.8h-9v4.8h10.3v2.8h-13.4V233.8z"></path>			<path class="st0" d="M360.9,283.1l1.9-2.3c1.7,1.5,3.5,2.3,5.7,2.3c2,0,3.2-0.9,3.2-2.3v-0.1c0-1.3-0.7-2-4.1-2.7    c-3.8-0.9-6-2.1-6-5.4v-0.1c0-3.1,2.6-5.2,6.1-5.2c2.6,0,4.7,0.8,6.5,2.3l-1.7,2.4c-1.6-1.2-3.2-1.8-4.9-1.8    c-1.8,0-2.9,0.9-2.9,2.1v0.1c0,1.4,0.8,2,4.3,2.8c3.8,0.9,5.7,2.3,5.7,5.3v0.1c0,3.4-2.6,5.4-6.4,5.4    C365.7,286,363.1,285,360.9,283.1z"></path>			<path class="st0" d="M391.7,267.6h2.9l7.9,18.1h-3.3l-1.8-4.3h-8.5l-1.8,4.3h-3.2L391.7,267.6z M396.2,278.6l-3.1-7.2l-3.1,7.2    H396.2z"></path>			<path class="st0" d="M412.8,267.8h2.9l9.6,12.4v-12.4h3.1v18h-2.6l-9.9-12.8v12.8h-3.1V267.8z"></path>			<path class="st0" d="M455.1,267.8h3.4l5.5,8.5l5.5-8.5h3.4v18h-3.2v-12.9l-5.7,8.5h-0.1l-5.6-8.4v12.8h-3.1V267.8z"></path>			<path class="st0" d="M490.9,267.6h2.9l7.9,18.1h-3.3l-1.8-4.3h-8.5l-1.8,4.3H483L490.9,267.6z M495.5,278.6l-3.1-7.2l-3.1,7.2    H495.5z"></path>			<path class="st0" d="M512,267.8h8c2.3,0,4,0.7,5.2,1.8c0.9,1,1.5,2.3,1.5,3.9v0.1c0,2.9-1.8,4.7-4.3,5.4l4.8,6.8h-3.7l-4.4-6.3    h-3.9v6.3H512V267.8z M519.8,276.7c2.3,0,3.7-1.2,3.7-3v-0.1c0-1.9-1.4-3-3.7-3h-4.6v6H519.8z"></path>			<path class="st0" d="M542.1,270.7h-5.7v-2.9H551v2.9h-5.7v15h-3.2V270.7z"></path>			<path class="st0" d="M561.7,267.8h3.2v18h-3.2V267.8z M564.9,262.6l2.8,1.2l-3.3,2.5H562L564.9,262.6z"></path>			<path class="st0" d="M576.8,267.8h2.9l9.6,12.4v-12.4h3.1v18h-2.6l-9.9-12.8v12.8h-3.1V267.8z"></path>			<path class="st0" d="M619.1,267.8h6.7c5.6,0,9.5,3.9,9.5,8.9v0.1c0,5.1-3.9,9-9.5,9h-6.7V267.8z M622.3,270.6v12.2h3.5    c3.8,0,6.2-2.5,6.2-6.1v-0.1c0-3.5-2.5-6.1-6.2-6.1H622.3z"></path>			<path class="st0" d="M646.4,267.8h13.3v2.8h-10.2v4.7h9v2.8h-9v4.8h10.3v2.8h-13.4V267.8z"></path>			<path class="st0" d="M685.6,267.8h7.1c4.2,0,6.8,2.4,6.8,6v0.1c0,4-3.2,6.1-7.2,6.1h-3.6v5.8h-3.2V267.8z M692.5,277.1    c2.4,0,3.9-1.3,3.9-3.2v-0.1c0-2.1-1.5-3.2-3.9-3.2h-3.7v6.5H692.5z"></path>			<path class="st0" d="M709.2,276.8L709.2,276.8c0-5.1,3.9-9.3,9.4-9.3s9.4,4.2,9.4,9.2v0.1c0,5.1-3.9,9.3-9.4,9.3    C713,286,709.2,281.9,709.2,276.8z M724.6,276.8L724.6,276.8c0-3.5-2.5-6.4-6.1-6.4c-3.6,0-6.1,2.8-6.1,6.3v0.1    c0,3.5,2.5,6.4,6.1,6.4C722.1,283.1,724.6,280.3,724.6,276.8z"></path>			<path class="st0" d="M738.9,267.8h8c2.3,0,4,0.7,5.2,1.8c0.9,1,1.5,2.3,1.5,3.9v0.1c0,2.9-1.8,4.7-4.3,5.4l4.8,6.8h-3.7l-4.4-6.3    h-3.9v6.3h-3.2V267.8z M746.7,276.7c2.3,0,3.7-1.2,3.7-3v-0.1c0-1.9-1.4-3-3.7-3h-4.6v6H746.7z"></path>			<path class="st0" d="M764.7,267.8h8c2.3,0,4,0.7,5.2,1.8c0.9,1,1.5,2.3,1.5,3.9v0.1c0,2.9-1.8,4.7-4.3,5.4l4.8,6.8h-3.7l-4.4-6.3    h-3.9v6.3h-3.2V267.8z M772.4,276.7c2.3,0,3.7-1.2,3.7-3v-0.1c0-1.9-1.4-3-3.7-3h-4.6v6H772.4z"></path>			<path class="st0" d="M790.4,267.8h13.3v2.8h-10.2v4.7h9v2.8h-9v4.8h10.3v2.8h-13.4V267.8z"></path>			<path class="st0" d="M813.6,283.1l1.9-2.3c1.7,1.5,3.5,2.3,5.7,2.3c2,0,3.2-0.9,3.2-2.3v-0.1c0-1.3-0.7-2-4.1-2.7    c-3.8-0.9-6-2.1-6-5.4v-0.1c0-3.1,2.6-5.2,6.1-5.2c2.6,0,4.7,0.8,6.5,2.3l-1.7,2.4c-1.6-1.2-3.2-1.8-4.9-1.8    c-1.8,0-2.9,0.9-2.9,2.1v0.1c0,1.4,0.8,2,4.3,2.8c3.8,0.9,5.7,2.3,5.7,5.3v0.1c0,3.4-2.6,5.4-6.4,5.4    C818.3,286,815.7,285,813.6,283.1z"></path>		</g>		<g>			<g>				<g>					<g>						<g>							<path class="st0" d="M172.4,18l-9.9,11l-9.9-11l0.8,14.8L138.4,32l11,9.9l-11,9.9l14.8-0.8L152.5,66l9.9-11l9.9,11l-0.8-14.8        l14.8,0.8l-11-9.9l11-9.9l-14.8,0.8L172.4,18L172.4,18z"></path>						</g>						<path class="st0" d="M259.6,176.5c0-46.9,0-91.6,0-91.6s0-2.2,0-4c0-0.4,0-0.9,0-1.2c-16.2,0-56.5,0-96.8,0       c-39.4,0-78.8,0-95.7,0c-0.4,0-0.8,0-1.2,0c0,1.8,0,5.2,0,5.2s0,44.7,0,91.6c0,9,0,18,0,26.8c0,8.3,2.3,15.9,6.4,22.9       c3.1,5.2,7.3,9.3,11.6,13.4c2.7,2.6,5.4,5,8.2,7.4c20.2,17.3,43.2,30.1,68.2,39.5c0.8,0.3,1.5,0.4,2.3,0.5v0c0,0,0,0,0,0       c0,0,0,0,0,0v0c0.8,0,1.5-0.2,2.3-0.5c25-9.4,48-22.2,68.2-39.5c2.8-2.4,5.5-4.9,8.2-7.4c4.3-4.1,8.5-8.2,11.6-13.4       c4.2-7.1,6.5-14.6,6.4-22.9C259.6,194.5,259.6,185.5,259.6,176.5z M239.4,218.1c-2,3.4-5.5,6.7-8.9,10       c-2.8,2.6-5.6,5.2-8.5,7.6l-59.2-59.2v93.8c-22.9-9-42.3-20.4-59.2-34.6l59.2-59.2H82c0-32.9,0-64.7,0-80.8h0l80.8,80.8V95.8       h80.8l-80.8,80.8h80.8c0,9,0,18,0,26.8C243.6,208.5,242.2,213.3,239.4,218.1z"></path>					</g>				</g>				<g>					<path class="st0" d="M23.5,87.9v-3.7c0-0.2,0.1-0.3,0.3-0.4l22.6-4.6c0.2-0.1,0.3,0,0.3,0.3v3.9c0,0.2-0.1,0.4-0.3,0.4      l-14.7,2.4v0.1l14.7,2.3c0.2,0,0.3,0.1,0.3,0.4v3.8c0,0.2-0.1,0.3-0.3,0.3l-22.6-4.7C23.6,88.2,23.5,88.1,23.5,87.9z"></path>					<path class="st0" d="M23.9,112.1l22.6,0c0.2,0,0.3,0.1,0.3,0.3v10.2c0,0.2-0.1,0.3-0.3,0.3h-3.4c-0.2,0-0.3-0.1-0.3-0.3v-5.8      c0-0.1-0.1-0.2-0.2-0.2h-5.1c-0.1,0-0.2,0.1-0.2,0.2v5c0,0.2-0.1,0.3-0.3,0.3h-3.4c-0.2,0-0.3-0.1-0.3-0.3v-5      c0-0.1-0.1-0.2-0.2-0.2h-5.3c-0.1,0-0.2,0.1-0.2,0.2v5.8c0,0.2-0.1,0.3-0.3,0.3l-3.4,0c-0.2,0-0.3-0.1-0.3-0.3v-10.2      C23.5,112.3,23.6,112.1,23.9,112.1z"></path>					<path class="st0" d="M23.5,155.7l0-4.1c0-0.2,0.1-0.3,0.3-0.4l8.8-2.6v-1.3c0-0.1-0.1-0.2-0.2-0.2l-8.6,0      c-0.2,0-0.3-0.1-0.3-0.3v-3.8c0-0.2,0.1-0.3,0.3-0.3l22.6,0c0.2,0,0.3,0.1,0.3,0.3v5.5c0,4.5-2.4,6.8-7.1,6.8      c-2.8,0-4.8-0.9-6-2.6l-9.9,3.2C23.7,155.9,23.5,155.9,23.5,155.7z M36.5,148.2c0,0.9,0.2,1.5,0.7,1.9c0.5,0.4,1.3,0.6,2.5,0.6      c1.2,0,2-0.2,2.5-0.6c0.5-0.4,0.7-1,0.7-1.9v-1c0-0.1-0.1-0.2-0.2-0.2l-6,0c-0.1,0-0.2,0.1-0.2,0.2V148.2z"></path>					<path class="st0" d="M23.9,175.3l22.6,0c0.2,0,0.3,0.1,0.3,0.3v3.8c0,0.2-0.1,0.3-0.3,0.3l-22.6,0c-0.2,0-0.3-0.1-0.3-0.3      l0-3.8C23.5,175.4,23.6,175.3,23.9,175.3z"></path>					<path class="st0" d="M23.6,207.7l-0.1-3.8c0-0.2,0.1-0.3,0.3-0.4l18.7-0.6c0.1,0,0.2-0.1,0.2-0.2l-0.1-3.7      c0-0.2,0.1-0.3,0.3-0.4l3.4-0.1c0.2,0,0.3,0.1,0.4,0.3l0.4,12.2c0,0.2-0.1,0.3-0.3,0.4l-3.4,0.1c-0.2,0-0.3-0.1-0.4-0.3      l-0.1-3.7c0-0.1-0.1-0.2-0.2-0.2L24,208C23.7,208,23.6,207.9,23.6,207.7z"></path>					<path class="st0" d="M28.9,233.4l22.6-5.1c0.2,0,0.4,0,0.5,0.2l1.7,3.7c0.1,0.2,0,0.3-0.2,0.5l-18.3,14.2      c-0.2,0.1-0.3,0.1-0.4-0.1l-1.6-3.4c-0.1-0.2,0-0.3,0.2-0.5l3.5-2.5l-1.9-4l-4.1,1.1c-0.2,0.1-0.4,0-0.5-0.2l-1.6-3.4      C28.6,233.6,28.7,233.4,28.9,233.4z M38.5,235.4l1.3,2.8l6.7-4.8l0-0.1L38.5,235.4z"></path>					<path class="st0" d="M63.3,269.1c-1.7,1.8-3.3,2.7-4.9,2.9c-1.6,0.2-3.1-0.6-4.8-2.1c-3-2.9-3.1-5.8-0.2-8.9      c0.2-0.2,0.3-0.2,0.5-0.1l3,2.1c0.2,0.1,0.2,0.3,0.1,0.5c-0.7,0.8-1.1,1.5-1.2,2c-0.1,0.6,0.1,1.1,0.6,1.5s1,0.6,1.5,0.5      c0.5-0.1,1.1-0.5,1.8-1.3c0.7-0.7,1.1-1.4,1.2-1.9c0.1-0.5,0-1.2-0.4-2.1l-0.6-1.4c-0.7-1.6-1-3-0.8-4.1c0.2-1.2,1-2.4,2.3-3.8      c3-3.1,6-3.2,8.9-0.4c2.8,2.7,3,5.5,0.4,8.4c-0.2,0.2-0.3,0.2-0.5,0.1l-2.9-2c-0.2-0.1-0.2-0.3-0.1-0.5      c1.1-1.2,1.3-2.3,0.4-3.1c-0.9-0.8-1.8-0.7-2.9,0.4c-0.6,0.6-0.9,1.2-1,1.6s0.1,1.2,0.5,2l0.6,1.4c0.7,1.6,1,2.9,0.8,4.1      C65.4,266.4,64.7,267.7,63.3,269.1z"></path>					<path class="st0" d="M95.7,301.7l11.5-19.4c0.1-0.2,0.3-0.2,0.5-0.1l3.3,1.9c0.2,0.1,0.2,0.3,0.1,0.5l-9.5,16.1      c-0.1,0.1,0,0.2,0.1,0.3l5.1,3c0.2,0.1,0.2,0.3,0.1,0.5l-1.7,2.9c-0.1,0.2-0.3,0.2-0.5,0.1l-8.8-5.2      C95.7,302,95.6,301.9,95.7,301.7z"></path>					<path class="st0" d="M123.6,316.7l9.5-20.5c0.1-0.2,0.2-0.3,0.5-0.2l3.5,1.6c0.2,0.1,0.3,0.2,0.2,0.5l-9.5,20.5      c-0.1,0.2-0.2,0.3-0.5,0.2l-3.5-1.6C123.5,317.1,123.5,316.9,123.6,316.7z"></path>					<path class="st0" d="M150.8,327.1l2.2-22.5c0-0.2,0.1-0.3,0.4-0.3l5.9,0.6c2.1,0.2,3.7,0.9,4.6,1.9c0.9,1.1,1.3,2.7,1,4.7      c-0.3,2.6-1.3,4.1-3.2,4.7l0,0.1c1.9,0.8,2.7,2.6,2.4,5.5c-0.2,2.5-1,4.2-2.2,5.1c-1.2,0.9-3,1.3-5.3,1l-5.5-0.5      C150.9,327.4,150.8,327.3,150.8,327.1z M155.6,323.9c0,0.1,0,0.2,0.2,0.2l1,0.1c1,0.1,1.6-0.1,2-0.5c0.4-0.4,0.7-1.2,0.8-2.5      c0.1-1.2,0-2-0.3-2.5c-0.3-0.5-1-0.8-1.9-0.9l-1-0.1c-0.1,0-0.2,0-0.2,0.2L155.6,323.9z M156.8,314.2l1,0.1      c0.9,0.1,1.5,0,1.9-0.4c0.4-0.4,0.6-1.1,0.7-2.2c0.1-1.1,0-1.9-0.3-2.3c-0.3-0.4-0.9-0.7-1.7-0.8l-1-0.1c-0.1,0-0.2,0-0.2,0.2      l-0.5,5.3C156.6,314.2,156.6,314.2,156.8,314.2z"></path>					<path class="st0" d="M189.2,322.4l-9-20.7c-0.1-0.2,0-0.4,0.2-0.5l9.3-4.1c0.2-0.1,0.4,0,0.5,0.2l1.3,3.1      c0.1,0.2,0,0.4-0.2,0.5l-5.3,2.3c-0.1,0.1-0.2,0.1-0.1,0.3l2,4.6c0.1,0.1,0.1,0.2,0.3,0.1l4.6-2c0.2-0.1,0.4,0,0.5,0.2l1.3,3.1      c0.1,0.2,0,0.4-0.2,0.4l-4.6,2c-0.1,0.1-0.2,0.1-0.1,0.3l2.1,4.8c0.1,0.1,0.1,0.2,0.3,0.1l5.3-2.3c0.2-0.1,0.4,0,0.5,0.2      l1.3,3.1c0.1,0.2,0,0.4-0.2,0.5l-9.3,4.1C189.4,322.6,189.3,322.6,189.2,322.4z"></path>					<path class="st0" d="M229.6,302.2l-3.5,2.1c-0.2,0.1-0.3,0.1-0.5,0l-6.7-6.3l-1.1,0.7c-0.1,0.1-0.1,0.2-0.1,0.3l4.3,7.4      c0.1,0.2,0.1,0.4-0.1,0.5l-3.3,1.9c-0.2,0.1-0.4,0.1-0.5-0.1L206.7,289c-0.1-0.2-0.1-0.4,0.1-0.5l4.8-2.8      c3.9-2.3,7.1-1.4,9.5,2.7c1.4,2.4,1.7,4.6,0.8,6.5l7.7,6.9C229.7,302,229.7,302.1,229.6,302.2z M216.6,294.7      c0.8-0.4,1.2-1,1.3-1.6c0.1-0.6-0.1-1.4-0.8-2.5c-0.6-1-1.2-1.6-1.7-1.8c-0.6-0.2-1.2-0.1-2,0.4l-0.9,0.5      c-0.1,0.1-0.1,0.2-0.1,0.3l3,5.1c0.1,0.1,0.2,0.1,0.3,0.1L216.6,294.7z"></path>					<path class="st0" d="M246.1,290.7l-9.9-20.9c-0.1-0.2-0.1-0.4,0.1-0.5l3.2-2.5c0.2-0.1,0.3-0.1,0.5,0l17.8,14.7      c0.2,0.2,0.2,0.3,0,0.4l-3,2.3c-0.2,0.1-0.3,0.1-0.5,0l-3.2-2.9l-3.5,2.7l2,3.8c0.1,0.2,0.1,0.4-0.1,0.5l-3,2.3      C246.3,290.9,246.2,290.9,246.1,290.7z M245.9,280.9l2.5-1.9l-6.1-5.5l-0.1,0.1L245.9,280.9z"></path>					<path class="st0" d="M273.4,267.5l-16.5-15.4c-0.2-0.2-0.2-0.3,0-0.5l4-4.3c1.5-1.6,2.9-2.4,4.3-2.4c1.4-0.1,2.9,0.6,4.4,2      c1.9,1.8,2.5,3.5,1.9,5.4l0,0c1.8-1,3.7-0.6,5.9,1.4c1.8,1.7,2.7,3.3,2.7,4.8c0,1.5-0.8,3.2-2.4,4.9l-3.8,4      C273.8,267.6,273.6,267.6,273.4,267.5z M266.8,254.9l0.7-0.7c0.6-0.7,0.9-1.2,0.8-1.7c-0.1-0.5-0.5-1.1-1.4-1.9      c-0.8-0.8-1.5-1.2-2-1.2c-0.5,0-1.1,0.3-1.7,0.9l-0.7,0.7c-0.1,0.1-0.1,0.2,0,0.3l3.9,3.6C266.7,255,266.8,255,266.8,254.9z       M273.8,261.7c0.1,0.1,0.2,0.1,0.3,0l0.7-0.7c0.7-0.7,0.9-1.3,0.9-1.9c-0.1-0.6-0.6-1.3-1.5-2.1c-0.9-0.8-1.6-1.3-2.2-1.3      c-0.6,0-1.2,0.3-1.8,1l-0.7,0.7c-0.1,0.1-0.1,0.2,0,0.3L273.8,261.7z"></path>					<path class="st0" d="M294.7,237.1l-21-8.3c-0.2-0.1-0.3-0.2-0.2-0.4l1.4-3.5c0.1-0.2,0.2-0.3,0.4-0.2l21,8.3      c0.2,0.1,0.3,0.2,0.2,0.4l-1.4,3.5C295,237.1,294.9,237.2,294.7,237.1z"></path>					<path class="st0" d="M301.9,200.8l0,3.8c0,0.2-0.1,0.3-0.3,0.3l-18.7,0c-0.1,0-0.2,0.1-0.2,0.2l0,3.7c0,0.2-0.1,0.3-0.3,0.3      l-3.4,0c-0.2,0-0.3-0.1-0.3-0.3l0-12.2c0-0.2,0.1-0.3,0.3-0.3l3.4,0c0.2,0,0.3,0.1,0.3,0.3v3.7c0,0.1,0.1,0.2,0.2,0.2l18.7,0      C301.7,200.5,301.9,200.6,301.9,200.8z"></path>					<path class="st0" d="M301.8,146.8v3.7c0,0.2-0.1,0.3-0.3,0.4l-22.6,4.6c-0.2,0.1-0.3,0-0.3-0.3v-3.9c0-0.2,0.1-0.4,0.3-0.4      l14.7-2.4v-0.1l-14.7-2.3c-0.2,0-0.3-0.1-0.3-0.4v-3.8c0-0.3,0.1-0.3,0.3-0.3l22.6,4.7C301.7,146.5,301.8,146.6,301.8,146.8z"></path>					<path class="st0" d="M302.1,117c0,3.1-1.3,5.1-3.9,6c-0.5,0.2-1.3,0.3-2.2,0.4c-0.9,0.1-2.9,0.1-5.8,0.1c-2.9,0-4.8,0-5.8-0.1      c-0.9-0.1-1.7-0.2-2.2-0.4c-2.6-0.9-3.9-2.9-3.9-6c0-3.1,1.3-5.1,3.9-6c0.5-0.2,1.3-0.3,2.2-0.4c0.9-0.1,2.9-0.1,5.8-0.1      c2.9,0,4.8,0,5.8,0.1c0.9,0.1,1.7,0.2,2.2,0.4C300.8,111.9,302.1,113.9,302.1,117z M298.1,117c0-0.9-0.4-1.4-1.1-1.6      c-0.5-0.2-2.8-0.2-6.8-0.2c-4,0-6.3,0.1-6.8,0.2c-0.8,0.2-1.1,0.8-1.1,1.6c0,0.9,0.4,1.4,1.1,1.6c0.5,0.2,2.8,0.2,6.8,0.2      c4,0,6.3-0.1,6.8-0.2C297.7,118.4,298.1,117.9,298.1,117z"></path>					<path class="st0" d="M294.9,78.7c2.4,0,4.3,0.5,5.4,1.5s1.8,2.7,1.8,4.9c0,4.1-2.1,6.2-6.2,6.3c-0.2,0-0.4-0.1-0.4-0.3      l-0.6-3.7c0-0.3,0-0.4,0.3-0.4c1.1,0,1.8-0.2,2.3-0.5c0.5-0.3,0.7-0.8,0.7-1.5c0-0.7-0.2-1.1-0.6-1.4c-0.4-0.3-1.1-0.4-2.2-0.4      c-1,0-1.8,0.1-2.2,0.4c-0.5,0.3-0.9,0.9-1.2,1.7l-0.5,1.4c-0.6,1.6-1.5,2.8-2.4,3.4c-1,0.6-2.4,1-4.3,1c-4.3,0-6.5-2.1-6.5-6.2      c0-3.9,1.9-6,5.8-6.2c0.2,0,0.4,0.1,0.4,0.3l0.5,3.5c0,0.2,0,0.4-0.3,0.4c-1.7,0-2.5,0.7-2.5,1.8c0,1.2,0.8,1.8,2.3,1.8      c0.9,0,1.5-0.1,1.9-0.4c0.4-0.3,0.8-0.9,1.1-1.8l0.5-1.4c0.6-1.6,1.4-2.8,2.4-3.4C291.5,79,293,78.7,294.9,78.7z"></path>				</g>			</g>		</g>	</g>	<g>		<path class="st0" d="M372.9,96.1v65.8c0,3.4,0.5,6.9,1.4,10.6c0.9,3.7,2.5,7.1,4.6,10.2c2.2,3.1,5,5.6,8.5,7.6   c3.5,2,7.8,2.9,13,2.9c5.2,0,9.5-1,13-2.9c3.5-2,6.4-4.5,8.5-7.6c2.2-3.1,3.7-6.5,4.6-10.2c0.9-3.7,1.4-7.2,1.4-10.6V96.1H443   v68.1c0,6.4-1.1,12.2-3.3,17.4c-2.2,5.2-5.2,9.7-9,13.6c-3.8,3.8-8.3,6.8-13.5,8.8c-5.2,2.1-10.7,3.1-16.7,3.1   c-6,0-11.6-1-16.7-3.1c-5.2-2.1-9.7-5-13.5-8.8c-3.8-3.8-6.8-8.3-9-13.6c-2.2-5.2-3.3-11-3.3-17.4V96.1H372.9z"></path>		<path class="st0" d="M554.7,174.3c0-6.4-1.4-11.4-4-15.1c-2.7-3.6-6-6.6-10-8.7c-3.9-2.1-8.3-3.8-13-5c-4.6-1.2-9-2.5-12.9-4   c-3.9-1.5-7.2-3.4-9.8-5.7c-2.6-2.3-3.9-5.7-3.9-10.1c0-1.5,0.3-3.3,1-5.1c0.7-1.8,1.8-3.6,3.4-5.2c1.6-1.6,3.8-2.9,6.4-4   c2.7-1,6.1-1.5,10.1-1.5c4.2,0,8.1,0.8,11.4,2.5c3.3,1.7,5.9,3.9,7.7,6.6l0.2,0.3l12.4-11l-0.2-0.2c-4.1-4.9-8.9-8.1-14.4-9.7   c-5.1-1.5-10.4-2.2-15.9-2.3c-0.4,0-0.9,0-1.3,0c0,0,0,0,0,0c0,0,0,0,0,0c-6.6,0-12.3,1-17,2.9c-4.7,1.9-8.5,4.4-11.5,7.2   c-3,2.9-5.2,6.1-6.6,9.6c-1.4,3.5-2.1,6.8-2.1,9.9c0,5.2,0.8,9.6,2.3,13.2c0.5,1.2,1.1,2.3,1.8,3.4c2.7,4,6,7.3,10,9.7   c3.9,2.4,8.3,4.3,13,5.6c4.6,1.3,8.9,2.7,12.9,4.2c3.9,1.4,7.2,3.2,9.8,5.3c2.6,2.1,3.9,5.1,3.9,9.1c0,2.8-0.7,5.3-2,7.4   c-1.3,2.1-3,4-5.1,5.4c-2.1,1.5-4.4,2.6-6.9,3.3c-2.5,0.7-5,1.1-7.5,1.1c-4.4,0-8.6-0.9-12.7-2.7c-4.1-1.8-7.5-4.6-10.1-8.4   l-0.2-0.2l-12.7,10.5l0.1,0.1c3.7,5,8.7,8.7,15,11c4.7,1.8,9.7,2.9,14.9,3.4c1.7,0.2,3.4,0.2,5.2,0.2c5.2,0,10.2-0.8,14.8-2.2   c2.2-0.7,4.2-1.6,6.1-2.5c2.2-1.1,4.2-2.4,6-3.9c3.4-2.8,6.1-6.2,8.1-10.3c2-4.1,3-8.7,3-13.7   C554.7,174.4,554.7,174.4,554.7,174.3C554.7,174.3,554.7,174.3,554.7,174.3z"></path>		<path class="st0" d="M595.8,96.1H618l34.9,83.1h0.6L688,96.1h22.2v111h-14.9v-91.5H695l-37.6,91.5h-8.8L611,115.6h-0.3v91.5h-14.9   V96.1z"></path>		<path class="st0" d="M753.7,96.1h38.6c7,0,12.8,1,17.4,2.9c4.5,1.9,8.1,4.3,10.8,7.3c2.6,2.9,4.5,6.3,5.5,9.9   c1,3.7,1.5,7.2,1.5,10.6c0,3.4-0.5,6.9-1.5,10.6c-1,3.7-2.9,7-5.5,9.9c-2.6,2.9-6.2,5.4-10.8,7.3c-4.5,1.9-10.3,2.9-17.4,2.9   h-23.7v49.7h-14.9V96.1z M768.6,144.4h19.5c2.9,0,5.8-0.2,8.6-0.7c2.8-0.5,5.4-1.3,7.6-2.6c2.2-1.2,4-3,5.3-5.3   c1.3-2.3,2-5.3,2-9.1c0-3.7-0.7-6.7-2-9.1c-1.3-2.3-3.1-4.1-5.3-5.3c-2.2-1.2-4.8-2.1-7.6-2.6c-2.8-0.5-5.7-0.7-8.6-0.7h-19.5   V144.4z"></path>	</g></g></svg>